# xmcd
#
# Track frame offsets: 
#        150
#        18913
#        40215
#        56865
#        72029
#        92654
#        112321
#        133921
#        149833
#        170108
#        188223
#        204718
#        220918
#        240606
#        258696
#        275933
#        294308
#
# Disc length: 4265 seconds
#
# Revision: 0
# Processed by: cddbd v1.5.2PL0 Copyright (c) Steve Scherf et al.
# Submitted via: ExactAudioCopy v1.0b4
#
DISCID=2210a711
DTITLE=Peter Cetera - A Collection
DYEAR=1998
DGENRE=Pop
TTITLE0=You're the inspiration
TTITLE1=Hard habit to break
TTITLE2=The next time I fall
TTITLE3=Hard to say I'm sorry
TTITLE4=Forever tonight
TTITLE5=Glory of love
TTITLE6=Feels like heaven
TTITLE7=Baby what a big surprise
TTITLE8=She doesn't need me anymore
TTITLE9=I wasn't the one
TTITLE10=Hard to say I'm sorry (Original version)
TTITLE11=Do you love me that much
TTITLE12=If you leave me now
TTITLE13=Look away
TTITLE14=You're the inspiration (Original version)
TTITLE15=After all
TTITLE16=Will you still love me
EXTD=
EXTT0=
EXTT1=
EXTT2=
EXTT3=
EXTT4=
EXTT5=
EXTT6=
EXTT7=
EXTT8=
EXTT9=
EXTT10=
EXTT11=
EXTT12=
EXTT13=
EXTT14=
EXTT15=
EXTT16=
PLAYORDER=
